# Blender v3.6.0 OBJ File: 'Hakuerijinja.blend'
# www.blender.org
mtllib town.mtl
o 立方体_立方体.001
v -22.361517 -22.361517 22.361517
v -22.361517 -19.830942 22.361517
v -22.361517 -22.361517 -22.361517
v -22.361517 -19.830942 -22.361517
v 22.361517 -22.361517 22.361517
v 22.361517 -19.830942 22.361517
v 22.361517 -22.361517 -22.361517
v 22.361517 -19.830942 -22.361517
v -14.124540 -12.526514 14.124540
v -14.124540 -12.526514 -14.124540
v 14.124540 -12.526514 14.124540
v 14.124540 -12.526514 -14.124540
v -7.748938 31.755819 7.748938
v -7.748938 31.755819 -7.748938
v 7.748938 31.755819 7.748938
v 7.748938 31.755819 -7.748938
v -12.750924 46.477020 12.750924
v -12.750924 46.477020 -12.750924
v 12.750924 46.477020 12.750924
v 12.750924 46.477020 -12.750924
v -7.748938 46.477020 7.748938
v -7.748938 46.477020 -7.748938
v 7.748938 46.477020 -7.748938
v 7.748938 46.477020 7.748938
v -7.748938 46.477020 7.748938
v -7.748938 46.477020 -7.748938
v 7.748938 46.477020 -7.748938
v 7.748938 46.477020 7.748938
v -7.748938 46.477020 7.748938
v -7.748938 46.477020 -7.748938
v 7.748938 46.477020 -7.748938
v 7.748938 46.477020 7.748938
v 0.000000 87.281815 0.000000
v -21.494978 67.878380 21.494978
v -21.494978 67.878380 -21.494978
v 21.494978 67.878380 -21.494978
v 21.494978 67.878380 21.494978
v -12.750924 50.087536 -12.750924
v 12.750924 50.087536 -12.750924
v 12.750924 50.087536 12.750924
v -12.750924 50.087536 12.750924
v -9.797775 50.087532 9.443824
v -9.797775 68.146843 9.443824
v -9.797775 50.087532 5.417515
v -9.797775 68.146843 5.417515
v -5.759811 50.087532 9.443824
v -5.759811 68.146843 9.443824
v -5.759811 50.087532 5.417515
v -5.759811 68.146843 5.417515
v 22.361517 -22.361517 22.361517
v 22.361517 -19.830942 22.361517
v 22.361517 -22.361517 -22.361517
v 22.361517 -19.830942 -22.361517
v -22.361517 -22.361517 22.361517
v -22.361517 -19.830942 22.361517
v -22.361517 -22.361517 -22.361517
v -22.361517 -19.830942 -22.361517
v 14.124540 -12.526514 14.124540
v 14.124540 -12.526514 -14.124540
v -14.124540 -12.526514 14.124540
v -14.124540 -12.526514 -14.124540
v 7.748938 31.755819 7.748938
v 7.748938 31.755819 -7.748938
v -7.748938 31.755819 7.748938
v -7.748938 31.755819 -7.748938
v 12.750924 46.477020 12.750924
v 12.750924 46.477020 -12.750924
v -12.750924 46.477020 12.750924
v -12.750924 46.477020 -12.750924
v 7.748938 46.477020 7.748938
v 7.748938 46.477020 -7.748938
v -7.748938 46.477020 -7.748938
v -7.748938 46.477020 7.748938
v 7.748938 46.477020 7.748938
v 7.748938 46.477020 -7.748938
v -7.748938 46.477020 -7.748938
v -7.748938 46.477020 7.748938
v 7.748938 46.477020 7.748938
v 7.748938 46.477020 -7.748938
v -7.748938 46.477020 -7.748938
v -7.748938 46.477020 7.748938
v 21.494978 67.878380 21.494978
v 21.494978 67.878380 -21.494978
v -21.494978 67.878380 -21.494978
v -21.494978 67.878380 21.494978
v 12.750924 50.087536 -12.750924
v -12.750924 50.087536 -12.750924
v -12.750924 50.087536 12.750924
v 12.750924 50.087536 12.750924
v 9.797775 50.087532 9.443824
v 9.797775 68.146843 9.443824
v 9.797775 50.087532 5.417515
v 9.797775 68.146843 5.417515
v 5.759811 50.087532 9.443824
v 5.759811 68.146843 9.443824
v 5.759811 50.087532 5.417515
v 5.759811 68.146843 5.417515
v -22.361517 -22.361517 -22.361517
v -22.361517 -19.830942 -22.361517
v -22.361517 -22.361517 22.361517
v -22.361517 -19.830942 22.361517
v 22.361517 -22.361517 -22.361517
v 22.361517 -19.830942 -22.361517
v 22.361517 -22.361517 22.361517
v 22.361517 -19.830942 22.361517
v -14.124540 -12.526514 -14.124540
v -14.124540 -12.526514 14.124540
v 14.124540 -12.526514 -14.124540
v 14.124540 -12.526514 14.124540
v -7.748938 31.755819 -7.748938
v -7.748938 31.755819 7.748938
v 7.748938 31.755819 -7.748938
v 7.748938 31.755819 7.748938
v -12.750924 46.477020 -12.750924
v -12.750924 46.477020 12.750924
v 12.750924 46.477020 -12.750924
v 12.750924 46.477020 12.750924
v -7.748938 46.477020 -7.748938
v -7.748938 46.477020 7.748938
v 7.748938 46.477020 7.748938
v 7.748938 46.477020 -7.748938
v -7.748938 46.477020 -7.748938
v -7.748938 46.477020 7.748938
v 7.748938 46.477020 7.748938
v 7.748938 46.477020 -7.748938
v -7.748938 46.477020 -7.748938
v -7.748938 46.477020 7.748938
v 7.748938 46.477020 7.748938
v 7.748938 46.477020 -7.748938
v -21.494978 67.878380 -21.494978
v -21.494978 67.878380 21.494978
v 21.494978 67.878380 21.494978
v 21.494978 67.878380 -21.494978
v -12.750924 50.087536 12.750924
v 12.750924 50.087536 12.750924
v 12.750924 50.087536 -12.750924
v -12.750924 50.087536 -12.750924
v -9.797775 50.087532 -9.443824
v -9.797775 68.146843 -9.443824
v -9.797775 50.087532 -5.417515
v -9.797775 68.146843 -5.417515
v -5.759811 50.087532 -9.443824
v -5.759811 68.146843 -9.443824
v -5.759811 50.087532 -5.417515
v -5.759811 68.146843 -5.417515
v 22.361517 -22.361517 -22.361517
v 22.361517 -19.830942 -22.361517
v 22.361517 -22.361517 22.361517
v 22.361517 -19.830942 22.361517
v -22.361517 -22.361517 -22.361517
v -22.361517 -19.830942 -22.361517
v -22.361517 -22.361517 22.361517
v -22.361517 -19.830942 22.361517
v 14.124540 -12.526514 -14.124540
v 14.124540 -12.526514 14.124540
v -14.124540 -12.526514 -14.124540
v -14.124540 -12.526514 14.124540
v 7.748938 31.755819 -7.748938
v 7.748938 31.755819 7.748938
v -7.748938 31.755819 -7.748938
v -7.748938 31.755819 7.748938
v 12.750924 46.477020 -12.750924
v 12.750924 46.477020 12.750924
v -12.750924 46.477020 -12.750924
v -12.750924 46.477020 12.750924
v 7.748938 46.477020 -7.748938
v 7.748938 46.477020 7.748938
v -7.748938 46.477020 7.748938
v -7.748938 46.477020 -7.748938
v 7.748938 46.477020 -7.748938
v 7.748938 46.477020 7.748938
v -7.748938 46.477020 7.748938
v -7.748938 46.477020 -7.748938
v 7.748938 46.477020 -7.748938
v 7.748938 46.477020 7.748938
v -7.748938 46.477020 7.748938
v -7.748938 46.477020 -7.748938
v 21.494978 67.878380 -21.494978
v 21.494978 67.878380 21.494978
v -21.494978 67.878380 21.494978
v -21.494978 67.878380 -21.494978
v 12.750924 50.087536 12.750924
v -12.750924 50.087536 12.750924
v -12.750924 50.087536 -12.750924
v 12.750924 50.087536 -12.750924
v 9.797775 50.087532 -9.443824
v 9.797775 68.146843 -9.443824
v 9.797775 50.087532 -5.417515
v 9.797775 68.146843 -5.417515
v 5.759811 50.087532 -9.443824
v 5.759811 68.146843 -9.443824
v 5.759811 50.087532 -5.417515
v 5.759811 68.146843 -5.417515
vt 0.375000 0.000000
vt 0.625000 0.000000
vt 0.625000 0.250000
vt 0.375000 0.250000
vt 0.625000 0.500000
vt 0.375000 0.500000
vt 0.625000 0.750000
vt 0.375000 0.750000
vt 0.625000 1.000000
vt 0.375000 1.000000
vt 0.125000 0.500000
vt 0.125000 0.750000
vt 0.625000 0.000000
vt 0.625000 0.250000
vt 0.625000 0.000000
vt 0.625000 0.250000
vt 0.625000 0.750000
vt 0.625000 1.000000
vt 0.625000 0.500000
vt 0.625000 0.750000
vt 0.625000 0.500000
vt 0.625000 0.500000
vt 0.625000 0.750000
vt 0.625000 1.000000
vt 0.668859 0.543859
vt 0.831141 0.543859
vt 0.831141 0.543859
vt 0.668859 0.543859
vt 0.625000 0.000000
vt 0.625000 0.250000
vt 0.625000 1.000000
vt 0.875000 0.750000
vt 0.875000 0.500000
vt 0.875000 0.500000
vt 0.875000 0.750000
vt 0.625000 0.500000
vt 0.625000 0.750000
vt 0.875000 0.750000
vt 0.875000 0.500000
vt 0.625000 0.500000
vt 0.625000 0.750000
vt 0.831141 0.706141
vt 0.668859 0.706141
vt 0.668859 0.706141
vt 0.831141 0.706141
vt 0.711684 0.663317
vt 0.788316 0.663316
vt 0.788316 0.586683
vt 0.711684 0.586684
vt 0.760294 0.614706
vt 0.739706 0.614706
vt 0.739706 0.635294
vt 0.760294 0.635294
vt 0.375000 0.000000
vt 0.625000 0.000000
vt 0.625000 0.250000
vt 0.375000 0.250000
vt 0.625000 0.500000
vt 0.375000 0.500000
vt 0.625000 0.750000
vt 0.375000 0.750000
vt 0.625000 1.000000
vt 0.375000 1.000000
vt 0.125000 0.500000
vt 0.125000 0.750000
vt 0.875000 0.500000
vt 0.875000 0.750000
vt 0.375000 0.000000
vt 0.375000 0.250000
vt 0.625000 0.250000
vt 0.625000 0.000000
vt 0.375000 0.500000
vt 0.625000 0.500000
vt 0.375000 0.750000
vt 0.625000 0.750000
vt 0.375000 1.000000
vt 0.625000 1.000000
vt 0.125000 0.500000
vt 0.125000 0.750000
vt 0.625000 0.250000
vt 0.625000 0.000000
vt 0.625000 0.250000
vt 0.625000 0.000000
vt 0.625000 1.000000
vt 0.625000 0.750000
vt 0.625000 0.500000
vt 0.625000 0.750000
vt 0.625000 0.750000
vt 0.625000 0.500000
vt 0.625000 0.500000
vt 0.625000 1.000000
vt 0.668859 0.543859
vt 0.668859 0.543859
vt 0.831141 0.543859
vt 0.831141 0.543859
vt 0.625000 0.250000
vt 0.625000 0.000000
vt 0.625000 1.000000
vt 0.875000 0.750000
vt 0.875000 0.750000
vt 0.875000 0.500000
vt 0.875000 0.500000
vt 0.625000 0.500000
vt 0.625000 0.750000
vt 0.875000 0.750000
vt 0.875000 0.500000
vt 0.625000 0.500000
vt 0.625000 0.750000
vt 0.831141 0.706141
vt 0.668859 0.706141
vt 0.668859 0.706141
vt 0.831141 0.706141
vt 0.711684 0.663317
vt 0.711684 0.586684
vt 0.788316 0.586683
vt 0.788316 0.663316
vt 0.375000 0.000000
vt 0.375000 0.250000
vt 0.625000 0.250000
vt 0.625000 0.000000
vt 0.375000 0.500000
vt 0.625000 0.500000
vt 0.375000 0.750000
vt 0.625000 0.750000
vt 0.375000 1.000000
vt 0.625000 1.000000
vt 0.125000 0.500000
vt 0.125000 0.750000
vt 0.875000 0.750000
vt 0.875000 0.500000
vt 0.375000 0.000000
vt 0.375000 0.250000
vt 0.625000 0.250000
vt 0.625000 0.000000
vt 0.375000 0.500000
vt 0.625000 0.500000
vt 0.375000 0.750000
vt 0.625000 0.750000
vt 0.375000 1.000000
vt 0.625000 1.000000
vt 0.125000 0.500000
vt 0.125000 0.750000
vt 0.625000 0.250000
vt 0.625000 0.000000
vt 0.625000 0.250000
vt 0.625000 0.000000
vt 0.625000 1.000000
vt 0.625000 0.750000
vt 0.625000 0.500000
vt 0.625000 0.750000
vt 0.625000 0.750000
vt 0.625000 0.500000
vt 0.625000 0.500000
vt 0.625000 1.000000
vt 0.668859 0.543859
vt 0.668859 0.543859
vt 0.831141 0.543859
vt 0.831141 0.543859
vt 0.625000 0.250000
vt 0.625000 0.000000
vt 0.625000 1.000000
vt 0.875000 0.750000
vt 0.875000 0.750000
vt 0.875000 0.500000
vt 0.875000 0.500000
vt 0.625000 0.500000
vt 0.625000 0.750000
vt 0.875000 0.750000
vt 0.875000 0.500000
vt 0.625000 0.500000
vt 0.625000 0.750000
vt 0.831141 0.706141
vt 0.668859 0.706141
vt 0.668859 0.706141
vt 0.831141 0.706141
vt 0.711684 0.663317
vt 0.711684 0.586684
vt 0.788316 0.586683
vt 0.788316 0.663316
vt 0.375000 0.000000
vt 0.375000 0.250000
vt 0.625000 0.250000
vt 0.625000 0.000000
vt 0.375000 0.500000
vt 0.625000 0.500000
vt 0.375000 0.750000
vt 0.625000 0.750000
vt 0.375000 1.000000
vt 0.625000 1.000000
vt 0.125000 0.500000
vt 0.125000 0.750000
vt 0.875000 0.750000
vt 0.875000 0.500000
vt 0.375000 0.000000
vt 0.625000 0.000000
vt 0.625000 0.250000
vt 0.375000 0.250000
vt 0.625000 0.500000
vt 0.375000 0.500000
vt 0.625000 0.750000
vt 0.375000 0.750000
vt 0.625000 1.000000
vt 0.375000 1.000000
vt 0.125000 0.500000
vt 0.125000 0.750000
vt 0.625000 0.000000
vt 0.625000 0.250000
vt 0.625000 0.000000
vt 0.625000 0.250000
vt 0.625000 0.750000
vt 0.625000 1.000000
vt 0.625000 0.500000
vt 0.625000 0.750000
vt 0.625000 0.500000
vt 0.625000 0.500000
vt 0.625000 0.750000
vt 0.625000 1.000000
vt 0.668859 0.543859
vt 0.831141 0.543859
vt 0.831141 0.543859
vt 0.668859 0.543859
vt 0.625000 0.000000
vt 0.625000 0.250000
vt 0.625000 1.000000
vt 0.875000 0.750000
vt 0.875000 0.500000
vt 0.875000 0.500000
vt 0.875000 0.750000
vt 0.625000 0.500000
vt 0.625000 0.750000
vt 0.875000 0.750000
vt 0.875000 0.500000
vt 0.625000 0.500000
vt 0.625000 0.750000
vt 0.831141 0.706141
vt 0.668859 0.706141
vt 0.668859 0.706141
vt 0.831141 0.706141
vt 0.711684 0.663317
vt 0.788316 0.663316
vt 0.788316 0.586683
vt 0.711684 0.586684
vt 0.375000 0.000000
vt 0.625000 0.000000
vt 0.625000 0.250000
vt 0.375000 0.250000
vt 0.625000 0.500000
vt 0.375000 0.500000
vt 0.625000 0.750000
vt 0.375000 0.750000
vt 0.625000 1.000000
vt 0.375000 1.000000
vt 0.125000 0.500000
vt 0.125000 0.750000
vt 0.875000 0.500000
vt 0.875000 0.750000
vn -1.0000 0.0000 0.0000
vn 0.0000 0.0000 -1.0000
vn 1.0000 0.0000 0.0000
vn 0.0000 0.0000 1.0000
vn 0.0000 -1.0000 0.0000
vn -0.6635 0.7482 0.0000
vn -0.9898 0.1425 0.0000
vn 0.0000 0.7482 0.6635
vn 0.0000 0.7482 -0.6635
vn 0.6635 0.7482 0.0000
vn 0.0000 0.1425 0.9898
vn 0.0000 0.1425 -0.9898
vn 0.9898 0.1425 0.0000
vn -0.6701 0.7423 0.0000
vn 0.0000 0.7423 -0.6701
vn 0.6701 0.7423 0.0000
vn 0.0000 0.7423 0.6701
vn 0.0000 1.0000 0.0000
usemtl None
s off
f 1/1/1 2/2/1 4/3/1 3/4/1
f 3/4/2 4/3/2 8/5/2 7/6/2
f 7/6/3 8/5/3 6/7/3 5/8/3
f 5/8/4 6/7/4 2/9/4 1/10/4
f 3/11/5 7/6/5 5/8/5 1/12/5
f 4/3/6 2/2/6 9/13/6 10/14/6
f 10/14/7 9/13/7 13/15/7 14/16/7
f 2/9/8 6/7/8 11/17/8 9/18/8
f 8/5/9 4/3/9 10/14/9 12/19/9
f 6/7/10 8/5/10 12/19/10 11/17/10
f 15/20/3 16/21/3 23/22/3 24/23/3
f 9/18/11 11/17/11 15/20/11 13/24/11
f 12/19/12 10/14/12 14/16/12 16/21/12
f 11/17/13 12/19/13 16/21/13 15/20/13
f 20/25/2 18/26/2 38/27/2 39/28/2
f 14/16/1 13/15/1 21/29/1 22/30/1
f 13/24/4 15/20/4 24/23/4 21/31/4
f 16/21/2 14/16/2 22/30/2 23/22/2
f 25/32/4 26/33/4 22/34/4 21/35/4
f 26/33/4 27/36/4 23/22/4 22/34/4
f 27/36/4 28/37/4 24/23/4 23/22/4
f 28/37/4 25/32/4 21/35/4 24/23/4
f 29/38/4 30/39/4 26/33/4 25/32/4
f 30/39/4 31/40/4 27/36/4 26/33/4
f 31/40/4 32/41/4 28/37/4 27/36/4
f 32/41/4 29/38/4 25/32/4 28/37/4
f 17/42/5 18/26/5 30/39/5 29/38/5
f 18/26/5 20/25/5 31/40/5 30/39/5
f 20/25/5 19/43/5 32/41/5 31/40/5
f 19/43/5 17/42/5 29/38/5 32/41/5
f 19/43/3 20/25/3 39/28/3 40/44/3
f 18/26/1 17/42/1 41/45/1 38/27/1
f 17/42/4 19/43/4 40/44/4 41/45/4
f 37/46/5 34/47/5 35/48/5 36/49/5
f 33/50/14 35/48/14 34/47/14
f 33/51/15 36/49/15 35/48/15
f 33/52/16 37/46/16 36/49/16
f 33/53/17 34/47/17 37/46/17
f 38/27/18 41/45/18 40/44/18 39/28/18
f 42/54/1 43/55/1 45/56/1 44/57/1
f 44/57/2 45/56/2 49/58/2 48/59/2
f 48/59/3 49/58/3 47/60/3 46/61/3
f 46/61/4 47/60/4 43/62/4 42/63/4
f 44/64/5 48/59/5 46/61/5 42/65/5
f 49/58/18 45/66/18 43/67/18 47/60/18
f 50/68/3 52/69/3 53/70/3 51/71/3
f 52/69/2 56/72/2 57/73/2 53/70/2
f 56/72/1 54/74/1 55/75/1 57/73/1
f 54/74/4 50/76/4 51/77/4 55/75/4
f 52/78/5 50/79/5 54/74/5 56/72/5
f 53/70/10 59/80/10 58/81/10 51/71/10
f 59/80/13 63/82/13 62/83/13 58/81/13
f 51/77/8 58/84/8 60/85/8 55/75/8
f 57/73/9 61/86/9 59/80/9 53/70/9
f 55/75/6 60/85/6 61/86/6 57/73/6
f 64/87/1 73/88/1 72/89/1 65/90/1
f 58/84/11 62/91/11 64/87/11 60/85/11
f 61/86/12 65/90/12 63/82/12 59/80/12
f 60/85/7 64/87/7 65/90/7 61/86/7
f 69/92/2 87/93/2 86/94/2 67/95/2
f 63/82/3 71/96/3 70/97/3 62/83/3
f 62/91/4 70/98/4 73/88/4 64/87/4
f 65/90/2 72/89/2 71/96/2 63/82/2
f 74/99/4 70/100/4 71/101/4 75/102/4
f 75/102/4 71/101/4 72/89/4 76/103/4
f 76/103/4 72/89/4 73/88/4 77/104/4
f 77/104/4 73/88/4 70/100/4 74/99/4
f 78/105/4 74/99/4 75/102/4 79/106/4
f 79/106/4 75/102/4 76/103/4 80/107/4
f 80/107/4 76/103/4 77/104/4 81/108/4
f 81/108/4 77/104/4 74/99/4 78/105/4
f 66/109/5 78/105/5 79/106/5 67/95/5
f 67/95/5 79/106/5 80/107/5 69/92/5
f 69/92/5 80/107/5 81/108/5 68/110/5
f 68/110/5 81/108/5 78/105/5 66/109/5
f 68/110/1 88/111/1 87/93/1 69/92/1
f 67/95/3 86/94/3 89/112/3 66/109/3
f 66/109/4 89/112/4 88/111/4 68/110/4
f 85/113/5 84/114/5 83/115/5 82/116/5
f 33/50/16 82/116/16 83/115/16
f 33/51/15 83/115/15 84/114/15
f 33/52/14 84/114/14 85/113/14
f 33/53/17 85/113/17 82/116/17
f 86/94/18 87/93/18 88/111/18 89/112/18
f 90/117/3 92/118/3 93/119/3 91/120/3
f 92/118/2 96/121/2 97/122/2 93/119/2
f 96/121/1 94/123/1 95/124/1 97/122/1
f 94/123/4 90/125/4 91/126/4 95/124/4
f 92/127/5 90/128/5 94/123/5 96/121/5
f 97/122/18 95/124/18 91/129/18 93/130/18
f 98/131/1 100/132/1 101/133/1 99/134/1
f 100/132/4 104/135/4 105/136/4 101/133/4
f 104/135/3 102/137/3 103/138/3 105/136/3
f 102/137/2 98/139/2 99/140/2 103/138/2
f 100/141/5 98/142/5 102/137/5 104/135/5
f 101/133/6 107/143/6 106/144/6 99/134/6
f 107/143/7 111/145/7 110/146/7 106/144/7
f 99/140/9 106/147/9 108/148/9 103/138/9
f 105/136/8 109/149/8 107/143/8 101/133/8
f 103/138/10 108/148/10 109/149/10 105/136/10
f 112/150/3 121/151/3 120/152/3 113/153/3
f 106/147/12 110/154/12 112/150/12 108/148/12
f 109/149/11 113/153/11 111/145/11 107/143/11
f 108/148/13 112/150/13 113/153/13 109/149/13
f 117/155/4 135/156/4 134/157/4 115/158/4
f 111/145/1 119/159/1 118/160/1 110/146/1
f 110/154/2 118/161/2 121/151/2 112/150/2
f 113/153/4 120/152/4 119/159/4 111/145/4
f 122/162/4 118/163/4 119/164/4 123/165/4
f 123/165/4 119/164/4 120/152/4 124/166/4
f 124/166/4 120/152/4 121/151/4 125/167/4
f 125/167/4 121/151/4 118/163/4 122/162/4
f 126/168/4 122/162/4 123/165/4 127/169/4
f 127/169/4 123/165/4 124/166/4 128/170/4
f 128/170/4 124/166/4 125/167/4 129/171/4
f 129/171/4 125/167/4 122/162/4 126/168/4
f 114/172/5 126/168/5 127/169/5 115/158/5
f 115/158/5 127/169/5 128/170/5 117/155/5
f 117/155/5 128/170/5 129/171/5 116/173/5
f 116/173/5 129/171/5 126/168/5 114/172/5
f 116/173/3 136/174/3 135/156/3 117/155/3
f 115/158/1 134/157/1 137/175/1 114/172/1
f 114/172/2 137/175/2 136/174/2 116/173/2
f 133/176/5 132/177/5 131/178/5 130/179/5
f 33/50/14 130/179/14 131/178/14
f 33/51/17 131/178/17 132/177/17
f 33/52/16 132/177/16 133/176/16
f 33/53/15 133/176/15 130/179/15
f 134/157/18 135/156/18 136/174/18 137/175/18
f 138/180/1 140/181/1 141/182/1 139/183/1
f 140/181/4 144/184/4 145/185/4 141/182/4
f 144/184/3 142/186/3 143/187/3 145/185/3
f 142/186/2 138/188/2 139/189/2 143/187/2
f 140/190/5 138/191/5 142/186/5 144/184/5
f 145/185/18 143/187/18 139/192/18 141/193/18
f 146/194/3 147/195/3 149/196/3 148/197/3
f 148/197/4 149/196/4 153/198/4 152/199/4
f 152/199/1 153/198/1 151/200/1 150/201/1
f 150/201/2 151/200/2 147/202/2 146/203/2
f 148/204/5 152/199/5 150/201/5 146/205/5
f 149/196/10 147/195/10 154/206/10 155/207/10
f 155/207/13 154/206/13 158/208/13 159/209/13
f 147/202/9 151/200/9 156/210/9 154/211/9
f 153/198/8 149/196/8 155/207/8 157/212/8
f 151/200/6 153/198/6 157/212/6 156/210/6
f 160/213/1 161/214/1 168/215/1 169/216/1
f 154/211/12 156/210/12 160/213/12 158/217/12
f 157/212/11 155/207/11 159/209/11 161/214/11
f 156/210/7 157/212/7 161/214/7 160/213/7
f 165/218/4 163/219/4 182/220/4 183/221/4
f 159/209/3 158/208/3 166/222/3 167/223/3
f 158/217/2 160/213/2 169/216/2 166/224/2
f 161/214/4 159/209/4 167/223/4 168/215/4
f 170/225/4 171/226/4 167/227/4 166/228/4
f 171/226/4 172/229/4 168/215/4 167/227/4
f 172/229/4 173/230/4 169/216/4 168/215/4
f 173/230/4 170/225/4 166/228/4 169/216/4
f 174/231/4 175/232/4 171/226/4 170/225/4
f 175/232/4 176/233/4 172/229/4 171/226/4
f 176/233/4 177/234/4 173/230/4 172/229/4
f 177/234/4 174/231/4 170/225/4 173/230/4
f 162/235/5 163/219/5 175/232/5 174/231/5
f 163/219/5 165/218/5 176/233/5 175/232/5
f 165/218/5 164/236/5 177/234/5 176/233/5
f 164/236/5 162/235/5 174/231/5 177/234/5
f 164/236/1 165/218/1 183/221/1 184/237/1
f 163/219/3 162/235/3 185/238/3 182/220/3
f 162/235/2 164/236/2 184/237/2 185/238/2
f 181/239/5 178/240/5 179/241/5 180/242/5
f 33/50/16 179/241/16 178/240/16
f 33/51/17 180/242/17 179/241/17
f 33/52/14 181/239/14 180/242/14
f 33/53/15 178/240/15 181/239/15
f 182/220/18 185/238/18 184/237/18 183/221/18
f 186/243/3 187/244/3 189/245/3 188/246/3
f 188/246/4 189/245/4 193/247/4 192/248/4
f 192/248/1 193/247/1 191/249/1 190/250/1
f 190/250/2 191/249/2 187/251/2 186/252/2
f 188/253/5 192/248/5 190/250/5 186/254/5
f 193/247/18 189/255/18 187/256/18 191/249/18
